# xmcd
#
# Track frame offsets:
#	150
#	16270
#	28578
#	42075
#	53748
#	68475
#	80870
#	90043
#	106578
#	117850
#	130758
#	140435
#	153918
#	165698
#	176505
#	193103
#	205473
#	215053
#	228158
#	238818
#
# Disc length: 3366 seconds
#
# Revision: 2
# Processed by: cddbd v1.5.1PL2 Copyright (c) Steve Scherf et al.
# Submitted via: dBpowerAMP V4.0
#
DISCID=030d2414
DTITLE=Tuutjefjoiters - Polderlaand
DYEAR=1989
DGENRE=Folk
TTITLE0=Polderlaand
TTITLE1=As
TTITLE2=Haarfsdag
TTITLE3=t Is nait aans
TTITLE4=Bootje voaren
TTITLE5=Europa
TTITLE6=De Heks van Oethoezen
TTITLE7=Toalstried
TTITLE8=n Hoeske mit n toentje
TTITLE9=Bonjoer merie
TTITLE10=Zundagmörgen
TTITLE11=Hou kin ik die vergeten
TTITLE12=Klaine dingen
TTITLE13=Mist
TTITLE14=Viskerleven
TTITLE15=Veurjoar
TTITLE16=Kunst en kultuur
TTITLE17=Harmonie
TTITLE18=t Zat zo
TTITLE19=Veul zegen
EXTD=By MartijnW\n
EXTT0=
EXTT1=
EXTT2=
EXTT3=
EXTT4=
EXTT5=
EXTT6=
EXTT7=
EXTT8=
EXTT9=
EXTT10=
EXTT11=
EXTT12=
EXTT13=
EXTT14=
EXTT15=
EXTT16=
EXTT17=
EXTT18=
EXTT19=
PLAYORDER=
